<?xml version="1.0" encoding="UTF-8" standalone="no"?>
<svg width="196px" height="222px" viewBox="0 0 196 222" version="1.1" xmlns="http://www.w3.org/2000/svg" xmlns:xlink="http://www.w3.org/1999/xlink" xmlns:sketch="http://www.bohemiancoding.com/sketch/ns">
    <!-- Generator: Sketch 3.0.3 (7891) - http://www.bohemiancoding.com/sketch -->
    <title>Tea Circle + Balloons</title>
    <desc>Created with Sketch.</desc>
    <defs></defs>
    <g id="Page-1" stroke="none" stroke-width="1" fill="none" fill-rule="evenodd" sketch:type="MSPage">
        <g id="Dates-and-stuff" sketch:type="MSLayerGroup" transform="translate(-750.000000, -40.000000)">
            <g id="Reception" transform="translate(688.000000, 40.000000)" sketch:type="MSShapeGroup">
                <g id="Tea-Circle-+-Balloons" transform="translate(47.000000, 0.000000)">
                    <g id="Tea-Circle" fill="#34495E">
                        <polygon id="Polygon-1" points="113 0 210.860871 55.5 210.860871 166.5 113 222 15.1391294 166.5 15.1391294 55.5 "></polygon>
                    </g>
                    <g id="Balloons" transform="translate(31.000000, 52.000000)" fill="#2980B9">
                        <path d="M135.070356,8.56712963 C129.780425,6.8587963 108.771178,1.40509259 92.2253836,15.5069444 C94.3668219,19.2337963 96.2304521,23.5092593 97.7468219,28.400463 C99.2585616,26.6296296 101.022644,25.037037 103.087685,23.7962963 C106.553342,21.7152778 110.720466,22.9814815 114.602836,27.4467593 C115.07974,27.9907407 115.285781,28.6550926 115.211699,29.3680556 C115.026493,31.1550926 113.158233,32.6851852 110.106973,34.9930556 C108.949438,35.8657407 107.752548,36.7708333 107.146,37.4375 C104.430425,40.4259259 102.536699,43.7060185 101.094411,46.4328704 C102.099151,65.4398148 94.1908767,81.0717593 85.4954795,92.3101852 C89.9913425,99.3310185 94.6585205,104.469907 97.1240685,106.979167 L89.1810685,114.622685 C88.792137,114.993056 88.6323973,115.541667 88.7527808,116.064815 C88.8731644,116.583333 89.2620959,117.00463 89.7667808,117.166667 L108.51189,123.215278 C109.021205,123.37963 109.579137,123.266204 109.984274,122.909722 C110.384781,122.55787 110.574616,122.020833 110.477384,121.49537 L108.48874,110.585648 C118.320836,108.94213 153.139466,100.918981 163.471616,68.9050926 C177.706973,24.787037 142.31189,10.900463 135.070356,8.56712963" id="Fill-1"></path>
                        <path d="M91.2576849,40.4560185 C85.0857123,4.85648148 60.7636027,-0.467592593 46.7829041,-0.467592593 C42.8264521,-0.467592593 39.6964795,-0.037037037 38.0458356,0.247685185 C30.5172329,1.55555556 -6.66045205,10.3842593 1.26171233,56.0601852 C6.96835616,88.9652778 40.898,102.020833 50.2300411,105.016204 L46.7551233,115.479167 C46.5861233,115.988426 46.6949315,116.543981 47.0421918,116.951389 C47.3362055,117.291667 47.759863,117.481481 48.199726,117.481481 C48.2853836,117.481481 48.368726,117.474537 48.4566986,117.458333 L67.8592877,114.094907 C68.3894384,114.00463 68.8316164,113.641204 69.0237671,113.141204 C69.2159178,112.643519 69.1302603,112.078704 68.8015205,111.659722 L61.9720685,102.928241 C69.9081233,96.8981481 97.0013699,73.6018519 91.2576849,40.4560185 L91.2576849,40.4560185 Z M28.2392055,35.2523148 C27.6210822,36.5671296 26.9821233,37.9189815 26.7598767,38.7939815 C25.5328904,43.5185185 25.5653014,48.0810185 25.5907671,51.4166667 C25.6162329,55.1134259 25.6301233,57.150463 23.9169726,57.8449074 C23.287274,58.0949074 22.5996986,58.287037 21.8588767,58.4143519 C21.2708493,58.5138889 20.5971644,58.5810185 19.9257945,58.5810185 C18.7543699,58.5810185 17.5644247,58.3842593 16.7333151,57.8449074 C16.460137,57.6643519 16.2517808,57.400463 16.1406575,57.0972222 C15.8813699,56.400463 9.94321918,39.9189815 16.8212877,28.6041667 C18.1431918,26.4328704 20.3309315,25.2986111 23.153,25.2986111 C24.8036438,25.2986111 26.6719041,25.6851852 28.7114795,26.4837963 C29.3828493,26.7453704 29.8759589,27.2314815 30.1421918,27.8935185 C30.8112466,29.5671296 29.8666986,31.7916667 28.2392055,35.2523148 L28.2392055,35.2523148 Z" id="Fill-2"></path>
                    </g>
                </g>
            </g>
        </g>
    </g>
</svg>