<?xml version="1.0" encoding="UTF-8" standalone="no"?>
<svg width="196px" height="222px" viewBox="0 0 196 222" version="1.1" xmlns="http://www.w3.org/2000/svg" xmlns:xlink="http://www.w3.org/1999/xlink" xmlns:sketch="http://www.bohemiancoding.com/sketch/ns">
    <title>rings</title>
    <description>Created with Sketch (http://www.bohemiancoding.com/sketch)</description>
    <defs></defs>
    <g id="Page-1" stroke="none" stroke-width="1" fill="none" fill-rule="evenodd" sketch:type="MSPage">
        <g id="Dates-and-stuff" sketch:type="MSLayerGroup" transform="translate(-179.000000, -41.000000)">
            <g id="Ceremony" transform="translate(117.000000, 41.000000)" sketch:type="MSShapeGroup">
                <g id="Ring-circle" transform="translate(47.000000, 0.000000)">
                    <polygon id="Polygon-1" fill="#34495E" points="113 0 210.860871 55.5 210.860871 166.5 113 222 15.1391294 166.5 15.1391294 55.5 "></polygon>
                    <g id="Rings" transform="translate(33.000000, 49.000000)" fill="#2980B9">
                        <path d="M90.5524083,42 C84.6962363,42 79,48.9818606 79,48.9818606 C79,48.9818606 73.3037637,42 67.4475917,42 C61.5905162,42 56,44.9103807 56,53.481681 C56,59.5655532 61.7504518,64.9103807 61.7504518,64.9103807 L79,82 L96.2495482,64.9103807 C96.2495482,64.9103807 102,59.5655532 102,53.481681 C102,44.9103807 96.4094838,42 90.5524083,42" id="Fill-1"></path>
                        <path d="M103.731814,16.1837569 C101.911481,15.9573474 100.063979,15.8486708 98.1802512,15.8486708 C92.882267,15.8486708 87.7835232,16.7452527 83.0379784,18.4025708 C99.2217353,26.2453988 110.415425,42.836693 110.415425,62 C110.415425,88.6982179 88.6891616,110.415425 62,110.415425 C35.3017821,110.415425 13.5845749,88.6982179 13.5845749,62 C13.5845749,37.520596 31.8422436,17.225241 55.4612913,14.0283377 C61.456617,8.67601519 68.4481449,4.4466842 76.1279579,1.63014899 C71.5907099,0.561495764 66.8542214,0 62,0 C27.8121531,0 0,27.8121531 0,62 C0,96.1878469 27.8121531,124 62,124 C96.1878469,124 124,96.1878469 124,62 C124,43.8691207 116.175285,27.5314052 103.731814,16.1837569" id="Fill-2"></path>
                        <path d="M98,0 C63.8121531,0 36,27.8121531 36,62 C36,80.1308793 43.8247152,96.4685948 56.2681858,107.825299 C58.0704061,108.042653 59.9088519,108.151329 61.7744668,108.151329 C67.0815074,108.151329 72.1893076,107.245691 76.9348525,105.588373 C60.7601519,97.7455448 49.5845749,81.1542507 49.5845749,62 C49.5845749,35.3017821 71.3017821,13.5845749 98,13.5845749 C124.689162,13.5845749 146.415425,35.3017821 146.415425,62 C146.415425,86.5065732 128.112474,106.810985 104.475314,109.980719 C98.4890447,115.314928 91.5065732,119.553316 83.8448729,122.360795 C88.3911773,123.438504 93.1276658,124 98,124 C132.187847,124 160,96.1878469 160,62 C160,27.8121531 132.187847,0 98,0" id="Fill-3"></path>
                    </g>
                </g>
            </g>
        </g>
    </g>
</svg>