<?xml version="1.0" encoding="UTF-8" standalone="no"?>
<svg width="196px" height="222px" viewBox="0 0 196 222" version="1.1" xmlns="http://www.w3.org/2000/svg" xmlns:xlink="http://www.w3.org/1999/xlink" xmlns:sketch="http://www.bohemiancoding.com/sketch/ns">
    <title>rings</title>
    <description>Created with Sketch (http://www.bohemiancoding.com/sketch)</description>
    <defs></defs>
    <g id="Page-1" stroke="none" stroke-width="1" fill="none" fill-rule="evenodd" sketch:type="MSPage">
        <g id="Dates-and-stuff" sketch:type="MSLayerGroup" transform="translate(-750.000000, -40.000000)">
            <g id="Reception" transform="translate(688.000000, 40.000000)" sketch:type="MSShapeGroup">
                <g id="Tea-Circle" transform="translate(47.000000, 0.000000)">
                    <polygon id="Polygon-1" fill="#34495E" points="113 0 210.860871 55.5 210.860871 166.5 113 222 15.1391294 166.5 15.1391294 55.5 "></polygon>
                    <g id="Coffee" transform="translate(50.000000, 34.000000)" fill="#2980B9">
                        <path d="M122,70 C121.917808,70.9323308 121.80274,71.9323308 121.663014,73 C120.791781,72.8345865 119.90411,72.7067669 119,72.6240602 C120.2,71.7819549 121.20274,70.9097744 122,70" id="Fill-1"></path>
                        <path d="M87,51 C86.904209,50.6307692 86.8004354,50.2538462 86.6567489,49.8615385 C86.4492017,49.1076923 86.0899855,48.2923077 85.8105951,47.4846154 C85.7307692,47.3 85.6509434,47.1923077 85.5711176,47 C82.5058055,46.6 79.3127721,46 76,46 C76.0878084,46.6461538 76.1596517,47.3 76.1756168,47.9769231 C76.2314949,48.5769231 76.2394775,49.1923077 76.2155298,49.8153846 C79.9433962,50.1 83.5515239,50.5 87,51 C87,51 83.5515239,50.5 87,51 L87,51 L87,51 Z M100.2352,49.9933833 C100.218933,50.8112042 100.153867,51.6290251 100.096933,52.430966 C100.023733,52.9629466 99.9342667,53.4790472 99.8366667,53.9951478 C100.894,54.2730481 101.9188,54.5668284 102.9192,54.8764888 C114.769467,58.5130128 117.933333,62.5227172 117.933333,64.3250993 C117.933333,66.1195412 114.769467,70.1371857 102.9192,73.7737097 C91.7765333,77.1958536 76.8925333,79.0776356 61,79.0776356 C45.1156,79.0776356 30.2234667,77.1958536 19.0889333,73.7737097 C7.23053333,70.1371857 4.06666667,66.1195412 4.06666667,64.3250993 C4.06666667,62.5227172 7.23053333,58.5130128 19.0889333,54.8764888 C24.5708,53.1932069 30.9554667,51.8751654 37.9176,50.9858844 C37.8444,50.7238641 37.7630667,50.4618438 37.6654667,50.1839435 C37.454,49.4058227 37.088,48.5641817 36.8033333,47.7304808 C36.6976,47.4843405 36.5918667,47.2461403 36.4942667,47 C15.006,50.1760035 0,56.5756506 0,64.2377592 C0,74.5756506 27.3117333,83 61,83 C94.6882667,83 122,74.6391707 122,64.3012792 C122,58.5447728 113.541333,53.4234671 100.2352,49.9933833 C100.2352,49.9933833 113.541333,53.4234671 100.2352,49.9933833 L100.2352,49.9933833 L100.2352,49.9933833 Z M51.3484163,49 C54.5422323,48.8558559 57.8024133,48.7837838 61.1040724,48.7837838 C61.4027149,48.7837838 61.7013575,48.7837838 62,48.790991 C61.7926094,48.2432432 61.5271493,47.6738739 61.311463,47.1117117 C60.9630468,46.4198198 60.6809955,45.7279279 60.3076923,45 L51.066365,45 L51.0497738,45 C51.0331825,45 51.0165913,45.0072072 51,45.0072072 C51.1493213,45.8504505 51.2737557,46.6936937 51.2986425,47.572973 C51.3484163,48.0414414 51.3567119,48.5171171 51.3484163,49 L51.3484163,49 Z" id="Fill-2"></path>
                        <path d="M109,75.5321101 C97.958106,80.0693578 80.5651079,83 60.9959701,83 C41.4348921,83 24.041894,80.0693578 13,75.5321101 C20.0926035,67.0550459 38.9041222,61 60.9959701,61 C83.0958778,61 101.907397,67.0550459 109,75.5321101" id="Fill-3"></path>
                        <path d="M38,125.5 C38,119.273345 43.4241071,114 50.0535714,114 L70.9464286,114 C77.5758929,114 83,119.273345 83,125.5 C83,131.726655 77.5758929,137 70.9464286,137 L50.0535714,137 C43.4241071,137 38,131.726655 38,125.5" id="Fill-4"></path>
                        <path d="M121.382372,73.2230216 C120.525212,73.0453111 119.65188,72.9079894 118.762375,72.8191342 C115.543984,75.2909252 110.886213,77.5042282 104.853752,79.4024991 C102.549125,80.1294964 100.090857,80.7918718 97.5032057,81.3815474 C87.0474788,83.7806386 74.5054583,85.0730784 61.3569572,85.0730784 C44.9577196,85.0730784 29.5126783,83.061719 17.8682493,79.4024991 C9.62011205,76.8095418 3.92728008,73.626909 1,70 C2.55259054,88.4091884 11.8843066,134 61.3569572,134 C80.4247098,134 93.5327788,127.230847 102.524866,117.852581 C106.462947,120.502083 111.201583,122.05301 116.29602,122.05301 C129.92162,122.05301 141,110.986495 141,97.3754891 C141,85.5092768 132.573962,75.5736463 121.382372,73.2230216 C121.382372,73.2230216 132.573962,75.5736463 121.382372,73.2230216 L121.382372,73.2230216 L121.382372,73.2230216 Z M116.52,114 C113.4,114 110.488,113.114911 108,111.580217 C114.896,101.763041 118.48,90.3705709 120.312,81 C127.576,82.7376969 133,89.3718012 133,97.2726378 C133,106.497047 125.608,114 116.52,114 L116.52,114 Z" id="Fill-5"></path>
                        <path d="M84.3782847,0.464835641 C84.3782847,0.464835641 84.2955966,0.775805826 84.1400446,1.35887492 C84.0581751,1.6471702 83.956657,2.00268038 83.8256659,2.41244839 C83.7650825,2.61733239 83.6856691,2.84084221 83.6267231,3.07406985 C83.5898818,3.29757967 83.5505845,3.53566622 83.5096498,3.78670986 C83.4441542,4.29122659 83.3197126,4.78278623 83.262404,5.35613751 C83.2394806,5.95621279 83.1780785,6.56843534 83.136325,7.20657207 C83.1993645,7.87305244 83.1748037,8.53386409 83.2501236,9.22868809 C83.3164379,9.58257864 83.3663782,9.93565937 83.4154999,10.2911696 C83.4400607,10.4669001 83.4646216,10.6450601 83.4891824,10.8256496 C83.5374854,11.0078587 83.5866071,11.1924972 83.6357287,11.3787554 C83.739703,11.7480325 83.8215724,12.119739 83.905898,12.4922554 C84.0164217,12.8712503 84.1654241,13.259963 84.2915031,13.6454365 C84.5150067,14.4090951 84.8956997,15.2310605 85.2018915,16.0384493 C85.9518157,17.6929078 86.7950711,19.4178206 87.8110711,21.2585373 C88.8598188,23.1462235 89.9429518,25.0970755 91.0432773,27.0795105 C92.169801,29.1275407 93.3348034,31.2654607 94.4220298,33.5515774 C95.5068001,35.8231175 96.5342618,38.2161302 97.3357638,40.7630084 C97.7606663,42.0052695 98.0676768,43.3503775 98.3771433,44.6412277 C98.6047404,46.0025321 98.8675414,47.307959 98.9232126,48.6943678 C99.0640281,50.0346169 98.9813399,51.4347925 98.9109322,52.7572256 C98.828244,53.4318042 98.718539,54.0990944 98.6178395,54.7501882 C98.5613496,55.0765449 98.5245083,55.3980427 98.4491884,55.7179209 C98.3681377,56.0377991 98.2739878,56.3528184 98.182294,56.6637886 C97.5510805,59.1798937 96.3287695,61.3356297 95.1187389,63.1131806 C94.8379267,63.5772065 94.4474093,63.9440541 94.1297558,64.3416748 C93.7949098,64.7279581 93.478075,65.1053334 93.1497784,65.4551749 C92.4849984,66.1443301 91.7817398,66.7047243 91.1497076,67.2432534 C90.5242249,67.7915003 89.8750001,68.2061272 89.2708035,68.5794534 C88.6698817,68.9535894 88.130362,69.2953327 87.6293209,69.5795789 C85.5269132,70.5861829 84.3021461,71 84.3021461,71 L83.7847312,70.3732007 C83.7847312,70.3732007 84.3815595,69.1835778 85.4679672,67.3849716 C85.6947456,66.8982709 85.9600026,66.3848461 86.2367214,65.8301207 C86.5036158,65.2689167 86.8507423,64.7166207 87.0726086,64.0517599 C87.3075739,63.3990465 87.6489696,62.7714374 87.8618302,62.0612268 C88.0460364,61.3421083 88.3374917,60.6497137 88.4864941,59.895773 C88.5446214,59.512729 88.6314031,59.1426421 88.7050856,58.7636471 C88.7443829,58.577389 88.7836802,58.3887013 88.8237963,58.1983941 C88.835258,58.0040377 88.8475384,57.8080617 88.8590001,57.610466 C88.8770114,57.2160846 88.9302266,56.8330406 88.9695239,56.4451377 C88.9842604,56.0507562 88.9474192,55.6442275 88.9449631,55.2474166 C88.9400509,55.0473915 88.9335014,54.8481762 88.9408696,54.6505806 C88.9359574,54.4497456 88.8958414,54.2408126 88.8770114,54.0367384 C88.8319832,53.6318293 88.786955,53.2212515 88.7411081,52.8066245 C88.5339784,51.9579351 88.443922,51.1270616 88.1622911,50.2386911 C87.9674418,49.3729954 87.612947,48.4554714 87.3362282,47.5444259 C86.9571726,46.6107056 86.6501622,45.6769852 86.2088858,44.7027739 C85.4155708,42.7689281 84.4585168,40.7484317 83.4605281,38.6591008 C82.4772759,36.577868 81.4367151,34.4124142 80.4616499,32.1918927 C79.4792164,29.9891872 78.5671906,27.6714876 77.8148103,25.3424504 C77.0501496,23.0166526 76.5212729,20.5766704 76.1946137,18.2257682 C76.1463107,17.620834 76.0988265,17.023998 76.0529796,16.43607 C75.9932149,15.8602893 75.9883027,15.2675023 76.016957,14.681194 C76.0382431,14.0981249 76.0431552,13.536111 76.086546,12.9773365 C76.1561351,12.4096539 76.2249054,11.8573579 76.3149618,11.3228779 C76.3591713,11.0572576 76.4025621,10.7940667 76.445953,10.534115 C76.515542,10.2733536 76.5843123,10.0166412 76.6530827,9.76154846 C76.7898047,9.25622191 76.9248893,8.76790154 77.0747104,8.30144627 C77.4275678,7.37339462 77.826272,6.52146588 78.2004154,5.7521386 C78.6695274,5.01034514 79.1009795,4.33657641 79.5250633,3.74378949 C79.9778014,3.15262221 80.4739303,2.64243675 80.8890084,2.20513493 C81.0977755,1.99053311 81.2950809,1.78726875 81.4809246,1.59615165 C81.6741365,1.43256838 81.8665298,1.3046171 82.040093,1.17180692 C82.3855821,0.911855282 82.6901365,0.697253462 82.9373823,0.523142551 C83.4400607,0.182209093 83.7085926,0 83.7085926,0 L84.3782847,0.464835641" id="Fill-6"></path>
                        <path d="M60.3782847,0.464835641 C60.3782847,0.464835641 60.2955966,0.775805826 60.1400446,1.35887492 C60.0581751,1.6471702 59.956657,2.00268038 59.8256659,2.41244839 C59.7650825,2.61733239 59.6856691,2.84084221 59.6267231,3.07406985 C59.5898818,3.29757967 59.5505845,3.53566622 59.5096498,3.78670986 C59.4441542,4.29122659 59.3197126,4.78278623 59.262404,5.35613751 C59.2394806,5.95621279 59.1780785,6.56843534 59.136325,7.20657207 C59.1993645,7.87305244 59.1748037,8.53386409 59.2501236,9.22868809 C59.3164379,9.58257864 59.3663782,9.93565937 59.4154999,10.2911696 C59.4400607,10.4669001 59.4646216,10.6450601 59.4891824,10.8256496 C59.5374854,11.0078587 59.5866071,11.1924972 59.6357287,11.3787554 C59.739703,11.7480325 59.8215724,12.119739 59.905898,12.4922554 C60.0164217,12.8712503 60.1654241,13.259963 60.2915031,13.6454365 C60.5150067,14.4090951 60.8956997,15.2310605 61.2018915,16.0384493 C61.9518157,17.6929078 62.7950711,19.4178206 63.8110711,21.2585373 C64.8598188,23.1462235 65.9429518,25.0970755 67.0432773,27.0795105 C68.169801,29.1275407 69.3348034,31.2654607 70.4220298,33.5515774 C71.5068001,35.8231175 72.5342618,38.2161302 73.3357638,40.7630084 C73.7606663,42.0052695 74.0676768,43.3503775 74.3771433,44.6412277 C74.6047404,46.0025321 74.8675414,47.307959 74.9232126,48.6943678 C75.0640281,50.0346169 74.9813399,51.4347925 74.9109322,52.7572256 C74.828244,53.4318042 74.718539,54.0990944 74.6178395,54.7501882 C74.5613496,55.0765449 74.5245083,55.3980427 74.4491884,55.7179209 C74.3681377,56.0377991 74.2739878,56.3528184 74.182294,56.6637886 C73.5510805,59.1798937 72.3287695,61.3356297 71.1187389,63.1131806 C70.8379267,63.5772065 70.4474093,63.9440541 70.1297558,64.3416748 C69.7949098,64.7279581 69.478075,65.1053334 69.1497784,65.4551749 C68.4849984,66.1443301 67.7817398,66.7047243 67.1497076,67.2432534 C66.5242249,67.7915003 65.8750001,68.2061272 65.2708035,68.5794534 C64.6698817,68.9535894 64.130362,69.2953327 63.6293209,69.5795789 C61.5269132,70.5861829 60.3021461,71 60.3021461,71 L59.7847312,70.3732007 C59.7847312,70.3732007 60.3815595,69.1835778 61.4679672,67.3849716 C61.6947456,66.8982709 61.9600026,66.3848461 62.2367214,65.8301207 C62.5036158,65.2689167 62.8507423,64.7166207 63.0726086,64.0517599 C63.3075739,63.3990465 63.6489696,62.7714374 63.8618302,62.0612268 C64.0460364,61.3421083 64.3374917,60.6497137 64.4864941,59.895773 C64.5446214,59.512729 64.6314031,59.1426421 64.7050856,58.7636471 C64.7443829,58.577389 64.7836802,58.3887013 64.8237963,58.1983941 C64.835258,58.0040377 64.8475384,57.8080617 64.8590001,57.610466 C64.8770114,57.2160846 64.9302266,56.8330406 64.9695239,56.4451377 C64.9842604,56.0507562 64.9474192,55.6442275 64.9449631,55.2474166 C64.9400509,55.0473915 64.9335014,54.8481762 64.9408696,54.6505806 C64.9359574,54.4497456 64.8958414,54.2408126 64.8770114,54.0367384 C64.8319832,53.6318293 64.786955,53.2212515 64.7411081,52.8066245 C64.5339784,51.9579351 64.443922,51.1270616 64.1622911,50.2386911 C63.9674418,49.3729954 63.612947,48.4554714 63.3362282,47.5444259 C62.9571726,46.6107056 62.6501622,45.6769852 62.2088858,44.7027739 C61.4155708,42.7689281 60.4585168,40.7484317 59.4605281,38.6591008 C58.4772759,36.577868 57.4375338,34.4124142 56.4616499,32.1918927 C55.4792164,29.9891872 54.5671906,27.6714876 53.8148103,25.3424504 C53.0501496,23.0166526 52.5212729,20.5766704 52.1946137,18.2257682 C52.1463107,17.620834 52.0996451,17.023998 52.0529796,16.43607 C51.9932149,15.8602893 51.9883027,15.2675023 52.016957,14.681194 C52.0382431,14.0981249 52.0431552,13.536111 52.086546,12.9773365 C52.1561351,12.4096539 52.2249054,11.8573579 52.3149618,11.3228779 C52.3591713,11.0572576 52.4025621,10.7940667 52.445953,10.534115 C52.515542,10.2733536 52.5843123,10.0166412 52.6530827,9.76154846 C52.7898047,9.25622191 52.9248893,8.76790154 53.0747104,8.30144627 C53.4275678,7.37339462 53.826272,6.52146588 54.2004154,5.7521386 C54.6695274,5.01034514 55.1009795,4.33657641 55.5250633,3.74378949 C55.9778014,3.15262221 56.4739303,2.64243675 56.8890084,2.20513493 C57.0977755,1.99053311 57.2950809,1.78726875 57.4809246,1.59615165 C57.6741365,1.43256838 57.8665298,1.3046171 58.040093,1.17180692 C58.3864008,0.911855282 58.6901365,0.697253462 58.9373823,0.523142551 C59.4400607,0.182209093 59.7085926,0 59.7085926,0 L60.3782847,0.464835641" id="Fill-7"></path>
                        <path d="M35.3782847,0.464835641 C35.3782847,0.464835641 35.2955966,0.775805826 35.1400446,1.35887492 C35.0581751,1.6471702 34.956657,2.00268038 34.8256659,2.41244839 C34.7650825,2.61733239 34.6856691,2.84084221 34.6267231,3.07406985 C34.5898818,3.29757967 34.5505845,3.53566622 34.5096498,3.78670986 C34.4441542,4.29122659 34.3197126,4.78278623 34.262404,5.35613751 C34.2394806,5.95621279 34.1780785,6.56843534 34.136325,7.20657207 C34.1993645,7.87305244 34.1748037,8.53386409 34.2501236,9.22868809 C34.3164379,9.58257864 34.3663782,9.93565937 34.4154999,10.2911696 C34.4400607,10.4669001 34.4646216,10.6450601 34.4891824,10.8256496 C34.5374854,11.0078587 34.5866071,11.1924972 34.6357287,11.3787554 C34.739703,11.7480325 34.8215724,12.119739 34.905898,12.4922554 C35.0164217,12.8712503 35.1654241,13.259963 35.2915031,13.6454365 C35.5150067,14.4090951 35.8956997,15.2310605 36.2018915,16.0384493 C36.9518157,17.6929078 37.7950711,19.4178206 38.8110711,21.2585373 C39.8598188,23.1462235 40.9429518,25.0970755 42.0432773,27.0795105 C43.169801,29.1275407 44.3348034,31.2654607 45.4220298,33.5515774 C46.5068001,35.8231175 47.5342618,38.2161302 48.3357638,40.7630084 C48.7606663,42.0052695 49.0676768,43.3503775 49.3771433,44.6412277 C49.6047404,46.0025321 49.8675414,47.307959 49.9232126,48.6943678 C50.0640281,50.0346169 49.9813399,51.4347925 49.9109322,52.7572256 C49.828244,53.4318042 49.718539,54.0990944 49.6178395,54.7501882 C49.5613496,55.0765449 49.5245083,55.3980427 49.4491884,55.7179209 C49.3681377,56.0377991 49.2739878,56.3528184 49.182294,56.6637886 C48.5510805,59.1798937 47.3287695,61.3356297 46.1187389,63.1131806 C45.8379267,63.5772065 45.4474093,63.9440541 45.1297558,64.3416748 C44.7949098,64.7279581 44.478075,65.1053334 44.1497784,65.4551749 C43.4849984,66.1443301 42.7817398,66.7047243 42.1497076,67.2432534 C41.5242249,67.7915003 40.8750001,68.2061272 40.2708035,68.5794534 C39.6698817,68.9535894 39.130362,69.2953327 38.6293209,69.5795789 C36.5269132,70.5861829 35.3021461,71 35.3021461,71 L34.7847312,70.3732007 C34.7847312,70.3732007 35.3815595,69.1835778 36.4679672,67.3849716 C36.6947456,66.8982709 36.9600026,66.3848461 37.2367214,65.8301207 C37.5036158,65.2689167 37.8507423,64.7166207 38.0726086,64.0517599 C38.3075739,63.3990465 38.6489696,62.7714374 38.8618302,62.0612268 C39.0460364,61.3421083 39.3374917,60.6497137 39.4864941,59.895773 C39.5446214,59.512729 39.6314031,59.1426421 39.7050856,58.7636471 C39.7443829,58.577389 39.7836802,58.3887013 39.8237963,58.1983941 C39.835258,58.0040377 39.8475384,57.8080617 39.8590001,57.610466 C39.8770114,57.2160846 39.9302266,56.8330406 39.9695239,56.4451377 C39.9842604,56.0507562 39.9474192,55.6442275 39.9449631,55.2474166 C39.9400509,55.0473915 39.9335014,54.8481762 39.9408696,54.6505806 C39.9359574,54.4497456 39.8958414,54.2408126 39.8770114,54.0367384 C39.8319832,53.6318293 39.786955,53.2212515 39.7411081,52.8066245 C39.5339784,51.9579351 39.443922,51.1270616 39.1622911,50.2386911 C38.9674418,49.3729954 38.612947,48.4554714 38.3362282,47.5444259 C37.9571726,46.6107056 37.6501622,45.6769852 37.2088858,44.7027739 C36.4155708,42.7689281 35.4585168,40.7484317 34.4605281,38.6591008 C33.4772759,36.577868 32.4375338,34.4124142 31.4616499,32.1918927 C30.4792164,29.9891872 29.5671906,27.6714876 28.8148103,25.3424504 C28.0501496,23.0166526 27.5212729,20.5766704 27.1946137,18.2257682 C27.1463107,17.620834 27.0996451,17.023998 27.0529796,16.43607 C26.9932149,15.8602893 26.9883027,15.2675023 27.016957,14.681194 C27.0382431,14.0981249 27.0431552,13.536111 27.086546,12.9773365 C27.1561351,12.4096539 27.2249054,11.8573579 27.3149618,11.3228779 C27.3591713,11.0572576 27.4025621,10.7940667 27.445953,10.534115 C27.515542,10.2733536 27.5843123,10.0166412 27.6530827,9.76154846 C27.7898047,9.25622191 27.9248893,8.76790154 28.0747104,8.30144627 C28.4275678,7.37339462 28.826272,6.52146588 29.2004154,5.7521386 C29.6695274,5.01034514 30.1009795,4.33657641 30.5250633,3.74378949 C30.9778014,3.15262221 31.4739303,2.64243675 31.8890084,2.20513493 C32.0977755,1.99053311 32.2950809,1.78726875 32.4809246,1.59615165 C32.6741365,1.43256838 32.8665298,1.3046171 33.040093,1.17180692 C33.3864008,0.911855282 33.6901365,0.697253462 33.9373823,0.523142551 C34.4400607,0.182209093 34.7085926,0 34.7085926,0 L35.3782847,0.464835641" id="Fill-8"></path>
                    </g>
                </g>
            </g>
        </g>
    </g>
</svg>